<?xml version="1.0" standalone="no"?>
<!DOCTYPE svg PUBLIC "-//W3C//DTD SVG 20010904//EN"
 "http://www.w3.org/TR/2001/REC-SVG-20010904/DTD/svg10.dtd">
<svg version="1.0" xmlns="http://www.w3.org/2000/svg"
 width="192.000000pt" height="192.000000pt" viewBox="0 0 192.000000 192.000000"
 preserveAspectRatio="xMidYMid meet">
<metadata>
Created by potrace 1.14, written by Peter Selinger 2001-2017
</metadata>
<g transform="translate(0.000000,192.000000) scale(0.100000,-0.100000)"
fill="#000000" stroke="none">
<path d="M319 1014 c-18 -21 -1 -85 51 -189 118 -241 362 -406 637 -431 78 -7
103 2 103 37 0 26 -30 39 -88 39 -27 0 -83 9 -126 20 -197 50 -373 192 -460
371 -25 52 -46 102 -46 110 0 21 -29 59 -44 59 -8 0 -19 -7 -27 -16z"/>
</g>
</svg>
