<?xml version="1.0" standalone="no"?>
<!DOCTYPE svg PUBLIC "-//W3C//DTD SVG 20010904//EN"
 "http://www.w3.org/TR/2001/REC-SVG-20010904/DTD/svg10.dtd">
<svg version="1.0" xmlns="http://www.w3.org/2000/svg"
 width="225.000000pt" height="225.000000pt" viewBox="0 0 225.000000 225.000000"
 preserveAspectRatio="xMidYMid meet">
<metadata>
Created by potrace 1.14, written by Peter Selinger 2001-2017
</metadata>
<g transform="translate(0.000000,225.000000) scale(0.100000,-0.100000)"
fill="#000000" stroke="none">
<path d="M1078 1759 c-17 -9 -18 -42 -18 -457 0 -471 0 -472 45 -472 45 0 45
1 45 465 0 415 -1 443 -18 458 -21 19 -30 20 -54 6z"/>
<path d="M1580 1430 c-225 -101 -230 -103 -230 -134 0 -14 6 -28 13 -33 31
-20 402 -183 417 -183 35 0 55 55 28 78 -7 5 -76 38 -153 72 -77 35 -141 64
-143 65 -1 1 62 30 140 65 79 34 149 67 156 72 15 13 16 50 0 66 -21 21 -48
13 -228 -68z"/>
<path d="M375 1196 c-18 -13 -19 -19 -8 -71 17 -80 82 -209 153 -303 153 -203
394 -338 643 -360 110 -10 125 -7 134 26 11 44 -7 56 -94 64 -221 18 -400 103
-549 261 -85 89 -144 184 -184 298 -36 100 -53 116 -95 85z"/>
</g>
</svg>
