<?xml version="1.0" standalone="no"?>
<!DOCTYPE svg PUBLIC "-//W3C//DTD SVG 20010904//EN"
 "http://www.w3.org/TR/2001/REC-SVG-20010904/DTD/svg10.dtd">
<svg version="1.0" xmlns="http://www.w3.org/2000/svg"
 width="310.000000pt" height="310.000000pt" viewBox="0 0 310.000000 310.000000"
 preserveAspectRatio="xMidYMid meet">
<metadata>
Created by potrace 1.14, written by Peter Selinger 2001-2017
</metadata>
<g transform="translate(0.000000,310.000000) scale(0.100000,-0.100000)"
fill="#000000" stroke="none">
<path d="M1495 2428 c-11 -6 -23 -16 -27 -22 -4 -6 -8 -286 -8 -622 0 -579 1
-612 18 -627 24 -22 65 -21 85 1 15 17 17 75 17 628 0 335 -4 614 -8 620 -6
10 -46 34 -54 34 -2 0 -12 -6 -23 -12z"/>
<path d="M2440 2083 c-8 -3 -138 -59 -289 -126 -291 -130 -305 -139 -285 -194
8 -23 48 -44 284 -150 151 -67 287 -123 302 -123 15 0 34 7 42 16 21 21 20 67
-1 87 -10 8 -106 55 -213 103 -107 47 -196 87 -197 88 -2 1 87 42 197 90 110
49 206 96 215 106 16 17 20 57 7 76 -11 17 -45 32 -62 27z"/>
<path d="M510 1640 c-26 -26 -25 -36 10 -143 148 -442 534 -771 997 -852 105
-18 233 -20 256 -2 29 22 32 63 5 90 -21 21 -36 24 -128 30 -458 27 -866 347
-1010 792 -12 39 -29 78 -38 88 -20 23 -67 22 -92 -3z"/>
</g>
</svg>
